<svg viewBox="0 0 320 320" xmlns="http://www.w3.org/2000/svg" width="320" height="320" stroke="black" stroke-width="1" fill="none">
    <circle cx="160" cy="160" r="159" />
    <circle cx="160" cy="160" r="157" />
    <circle cx="160" cy="160" r="155" />
    <circle cx="160" cy="160" r="153" />
    <circle cx="160" cy="160" r="151" />
    <circle cx="160" cy="160" r="149" />
    <circle cx="160" cy="160" r="147" />
    <circle cx="160" cy="160" r="145" />
    <circle cx="160" cy="160" r="143" />
    <circle cx="160" cy="160" r="141" />
    <circle cx="160" cy="160" r="139" />
    <circle cx="160" cy="160" r="137" />
    <circle cx="160" cy="160" r="135" />
    <circle cx="160" cy="160" r="133" />
    <circle cx="160" cy="160" r="131" />
    <circle cx="160" cy="160" r="126" />
    <circle cx="160" cy="160" r="124" />
    <circle cx="160" cy="160" r="122" />
    <circle cx="160" cy="160" r="120" />
    <circle cx="160" cy="160" r="118" />
    <circle cx="160" cy="160" r="116" />
    <circle cx="160" cy="160" r="114" />
    <circle cx="160" cy="160" r="112" />
    <circle cx="160" cy="160" r="110" />
    <circle cx="160" cy="160" r="108" />
    <circle cx="160" cy="160" r="106" />
    <circle cx="160" cy="160" r="104" />
    <circle cx="160" cy="160" r="102" />
    <circle cx="160" cy="160" r="100" />
    <circle cx="160" cy="160" r="98" />
    <circle cx="160" cy="160" r="96" />
    <circle cx="160" cy="160" r="91" />
    <circle cx="160" cy="160" r="89" />
    <circle cx="160" cy="160" r="87" />
    <circle cx="160" cy="160" r="85" />
    <circle cx="160" cy="160" r="83" />
    <circle cx="160" cy="160" r="81" />
    <circle cx="160" cy="160" r="79" />
    <circle cx="160" cy="160" r="77" />
    <circle cx="160" cy="160" r="75" />
    <circle cx="160" cy="160" r="73" />
    <circle cx="160" cy="160" r="71" />
    <circle cx="160" cy="160" r="69" />
    <circle cx="160" cy="160" r="67" />
    <circle cx="160" cy="160" r="65" />
    <circle cx="160" cy="160" fill="blue" fill-opacity="0.1" r="60" />
    <circle cx="160" cy="160" fill="none" r="2" />
</svg>